<svg xmlns="http://www.w3.org/2000/svg" x="0px" y="0px" width="100" height="100" viewBox="0 0 48 48">
<defs><linearGradient id="6DbI_hSeSIPmYS83fqh_ia_oFSqNJiVjAFs_gr1" x1="40.4" x2="9.56" y1="7.6" y2="38.44" gradientUnits="userSpaceOnUse"><stop offset="0" stop-color="#60affe"></stop><stop offset=".15" stop-color="#7fbefe"></stop><stop offset=".44" stop-color="#b5dafe"></stop><stop offset=".68" stop-color="#ddeefe"></stop><stop offset=".88" stop-color="#f6fafe"></stop><stop offset="1" stop-color="#fff"></stop></linearGradient></defs><path fill="url(#6DbI_hSeSIPmYS83fqh_ia_oFSqNJiVjAFs_gr1)" d="M43.1,23.96c-10.35-.41-18.65-8.71-19.06-19.06l-.04-.9-.04.9c-.41,10.35-8.71,18.65-19.06,19.06l-.9.04.9.04c10.35.41,18.65,8.71,19.06,19.06l.04.9.04-.9c.41-10.35,8.71-18.65,19.06-19.06l.9-.04-.9-.04Z"></path><path fill="none" stroke="#2e9bfe" stroke-linecap="round" stroke-linejoin="round" stroke-width="3" d="M24,44l.04-.9c.41-10.35,8.71-18.65,19.06-19.06l.9-.04-.9-.04c-3.87-.15-7.46-1.41-10.45-3.46"></path><path fill="none" stroke="#2e9bfe" stroke-linecap="round" stroke-linejoin="round" stroke-width="3" d="M27.23,14.95c-1.9-2.91-3.05-6.35-3.19-10.05l-.04-.9-.04.9c-.41,10.35-8.71,18.65-19.06,19.06l-.9.04.9.04c6.96.27,13,4.12,16.33,9.76"></path>
</svg>